<?xml version="1.0" encoding="utf-8"?>
<!-- Generator: Adobe Illustrator 16.0.0, SVG Export Plug-In . SVG Version: 6.00 Build 0)  -->
<!DOCTYPE svg PUBLIC "-//W3C//DTD SVG 1.1//EN" "http://www.w3.org/Graphics/SVG/1.1/DTD/svg11.dtd">
<svg version="1.1" xmlns="http://www.w3.org/2000/svg" xmlns:xlink="http://www.w3.org/1999/xlink" x="0px" y="0px" width="500px"
	 height="500px" viewBox="0 0 500 500" enable-background="new 0 0 500 500" xml:space="preserve">
<g id="Layer_3">
	<rect fill="#75C26B" stroke="#000000" stroke-miterlimit="10" width="500" height="500"/>
</g>
<g id="Layer_2">
	<g>
		<g>
			<path fill="#FFF200" d="M84.703,184.342l-16.483,0.122c-11.562,0.163-20.01,0.41-25.339,0.738
				c-4.758,0.41-8.161,0.616-10.21,0.616c-5.003,0-8.98-1.272-11.932-3.814c-2.872-2.54-4.306-5.574-4.306-9.102
				c0-2.295,0.532-4.1,1.599-5.413c1.065-1.31,3.648-3.362,7.75-6.15c2.377-1.638,4.017-4.202,4.92-7.688
				c0.901-3.484,1.886-10.966,2.953-22.449c1.556-17.876,2.336-39.894,2.336-66.056c0-9.593-0.636-15.969-1.906-19.127
				c-1.273-3.156-4.244-5.758-8.918-7.81c-5.413-2.295-8.118-5.659-8.118-10.087c0-3.608,1.618-6.56,4.859-8.856
				c3.238-2.295,7.399-3.445,12.485-3.445c2.787,0,6.354,0.123,10.702,0.371c7.214,0.327,15.006,0.49,23.371,0.49
				c6.151,0,18.246-0.245,36.287-0.738c5.659-0.163,10.783-0.245,15.377-0.245c10.905,0,19.7,0.883,26.385,2.646
				c6.682,1.763,12.484,4.734,17.405,8.916c8.036,6.809,12.056,15.912,12.056,27.309c0,5.658-1.19,11.175-3.567,16.544
				c-2.38,5.373-5.578,9.658-9.596,12.856c-2.871,2.297-4.305,4.386-4.305,6.272c0,2.05,1.723,3.772,5.167,5.167
				c6.723,2.705,12.833,7.257,18.328,13.654c5.659,6.642,8.488,14.966,8.488,24.971c0,11.807-4.306,22.593-12.916,32.351
				c-11.4,12.875-28.251,19.312-50.556,19.312c-3.035,0-10.499-0.207-22.388-0.615C93.806,184.668,87.163,184.423,84.703,184.342z
				 M93.19,50.881v25.338c0,4.018,0.511,6.849,1.538,8.487c1.024,1.642,2.808,2.461,5.351,2.461c6.068,0,10.537-1.866,13.408-5.599
				c2.869-3.729,4.305-9.573,4.305-17.528c0-7.706-1.476-13.672-4.428-17.898c-2.952-4.223-7.134-6.333-12.547-6.333
				c-2.872,0-4.858,0.799-5.966,2.398C93.744,43.805,93.19,46.697,93.19,50.881z M93.19,121.732v11.686
				c0,10.745,0.778,17.878,2.338,21.403c1.556,3.527,4.714,5.289,9.471,5.289c12.464,0,18.697-7.298,18.697-21.895
				c0-18.207-6.971-27.308-20.911-27.308c-3.61,0-6.11,0.779-7.504,2.337C93.886,114.803,93.19,117.632,93.19,121.732z"/>
			<path d="M32.671,191.518c-6.382,0-11.647-1.748-15.65-5.194c-4.132-3.654-6.286-8.278-6.286-13.421
				c0-3.626,0.968-6.658,2.875-9.006c0.994-1.221,2.908-3.15,8.97-7.271c1.191-0.82,2.054-2.267,2.607-4.404
				c0.564-2.18,1.507-7.69,2.794-21.546c1.534-17.611,2.312-39.67,2.312-65.529c0-11.992-1.044-15.882-1.494-16.999
				c-0.858-2.128-3.694-3.742-5.922-4.72c-9.515-4.035-11.526-10.552-11.526-15.305c0-5.469,2.511-10.14,7.263-13.506
				c4.208-2.983,9.517-4.495,15.78-4.495c2.903,0,6.613,0.128,11.027,0.38c7.028,0.317,14.804,0.48,23.045,0.48
				c6.114,0,18.271-0.249,36.131-0.736C110.276,10.083,115.504,10,120.13,10c11.339,0,20.706,0.953,27.838,2.833
				c7.482,1.974,14.091,5.367,19.643,10.085c9.33,7.905,14.063,18.555,14.063,31.651c0,6.432-1.364,12.774-4.055,18.852
				c-2.745,6.196-6.531,11.246-11.256,15.006c-0.647,0.518-1.112,0.952-1.445,1.299c0.246,0.123,0.542,0.256,0.896,0.401
				c7.534,3.031,14.439,8.153,20.511,15.222c6.551,7.688,9.864,17.333,9.864,28.685c0,13.183-4.825,25.336-14.342,36.121
				c-12.481,14.097-30.928,21.242-54.83,21.242c-3.058,0-10.444-0.203-22.583-0.62c-10.666-0.406-17.259-0.649-19.805-0.734
				l-16.367,0.122c-11.37,0.162-19.804,0.406-25.031,0.727C38.397,191.31,34.897,191.518,32.671,191.518z M34.394,21.521
				c-3.855,0-6.947,0.807-9.19,2.395c-2.164,1.534-2.455,2.987-2.455,4.208c0,0.859,0,2.87,4.644,4.84
				c6.127,2.688,10.136,6.355,11.979,10.925c0.998,2.477,2.32,7.371,2.32,21.259c0,26.188-0.793,48.58-2.358,66.549
				c-1.108,11.931-2.125,19.568-3.113,23.385c-1.254,4.838-3.678,8.522-7.204,10.953c-5.333,3.625-6.451,4.917-6.562,5.051
				c-0.11,0.136-0.322,0.694-0.322,1.818c0,1.885,0.734,3.375,2.382,4.833c1.845,1.588,4.532,2.384,8.156,2.384
				c1.87,0,5.14-0.2,9.72-0.596c5.545-0.343,14.162-0.596,25.748-0.759l16.637-0.122l0.116,0.004
				c2.463,0.081,9.114,0.326,19.955,0.738c11.985,0.412,19.245,0.612,22.17,0.612c20.786,0,35.927-5.688,46.29-17.393
				c7.725-8.754,11.483-18.103,11.483-28.572c0-8.688-2.331-15.646-7.127-21.275c-4.854-5.651-10.281-9.716-16.117-12.062
				c-7.225-2.925-8.739-7.3-8.739-10.454c0-3.746,2.107-7.253,6.444-10.723c3.283-2.614,5.951-6.214,7.944-10.713
				c2.043-4.614,3.08-9.404,3.08-14.236c0-9.725-3.284-17.237-10.041-22.96c-4.25-3.612-9.353-6.218-15.174-7.755
				c-6.184-1.628-14.573-2.456-24.932-2.456c-4.517,0-9.635,0.082-15.213,0.243c-17.972,0.492-30.233,0.74-36.451,0.74
				c-8.413,0-16.363-0.167-23.629-0.496C40.571,21.643,37.081,21.521,34.394,21.521z M105,165.809
				c-9.441,0-13.253-5.443-14.686-8.688c-1.925-4.35-2.823-11.884-2.823-23.704v-11.686c0-5.605,1.16-9.625,3.544-12.289
				c2.515-2.811,6.468-4.235,11.75-4.235c9.938,0,26.61,4.287,26.61,33.007C129.396,162.225,114.111,165.809,105,165.809z
				 M99.462,117.11c0.021,0.032-0.572,1.156-0.572,4.622v11.686c0,13.461,1.294,17.839,1.851,19.097
				c0.313,0.712,0.837,1.896,4.259,1.896c6.751,0,12.998-1.963,12.998-16.196c0-19.153-8.129-21.609-15.211-21.609
				C100.378,116.606,99.568,117.047,99.462,117.11z M100.079,92.867c-6.07,0-8.988-3.224-10.186-5.144
				c-1.636-2.61-2.402-6.269-2.402-11.504V50.881c0-5.497,0.85-9.286,2.675-11.918c1.533-2.213,4.625-4.853,10.65-4.853
				c7.253,0,13.208,3.031,17.217,8.768c3.621,5.183,5.457,12.304,5.457,21.164c0,9.333-1.795,16.205-5.488,21.002
				C114.011,90.234,107.979,92.867,100.079,92.867z M99.452,81.428c0.139,0.02,0.343,0.041,0.627,0.041
				c6.294,0,8.249-2.54,8.891-3.375c1.424-1.852,3.123-5.794,3.123-14.053c0-6.48-1.145-11.403-3.401-14.635
				c-1.885-2.696-4.313-3.898-7.875-3.898c-0.719,0-1.144,0.078-1.361,0.137c-0.173,0.477-0.566,1.918-0.566,5.236v25.338
				C98.89,79.439,99.261,80.892,99.452,81.428z"/>
		</g>
	</g>
</g>
<g id="Layer_1">
	<g>
		<g>
			<path fill="#FFFFFF" d="M144.863,243.646c12.494,52.442,88.924,101.135,88.924,101.135s46.261-77.928,33.767-130.37
				c-12.503-52.447-45.145-67.626-79.024-59.554C154.651,162.931,132.364,191.196,144.863,243.646z"/>
			<path d="M235.536,352.12l-4.568-2.912c-0.796-0.505-19.721-12.626-40.482-31.438c-28.229-25.578-45.298-50.109-50.729-72.908
				c-6.222-26.113-4.548-47.924,4.975-64.828c8.573-15.215,23.297-25.688,42.582-30.282c15.53-3.701,30.456-2.626,43.166,3.105
				c20.373,9.186,34.96,30.051,42.18,60.335c5.433,22.801,1.259,52.391-12.404,87.952c-10.047,26.153-21.473,45.506-21.954,46.317
				L235.536,352.12z M226.165,162.427c-10.726-4.836-22.977-5.666-36.418-2.464c-16.365,3.9-28.769,12.622-35.869,25.224
				c-8.184,14.525-9.5,33.784-3.909,57.241c10.128,42.508,65.548,83.452,82.022,94.825c9.573-17.587,40.574-79.159,30.454-121.626
				C256.009,188.624,243.463,170.227,226.165,162.427z"/>
		</g>
		<g>
			<path fill="#FFFFFF" d="M342.304,447.69c-52.002-14.212-98.158-92.204-98.158-92.204s79.409-43.671,131.411-29.459
				c52.01,14.216,66.106,47.339,56.924,80.935C423.3,440.56,394.317,461.906,342.304,447.69z"/>
			<path d="M328.604,448.281c-20.28-9.146-41.438-27.123-62.882-53.439c-15.832-19.428-25.683-35.986-26.094-36.682l-2.759-4.662
				l4.746-2.61c3.318-1.825,81.887-44.527,135.325-29.923c7.117,1.944,13.758,4.299,19.745,6.999
				c35.547,16.028,50.439,45.326,40.857,80.382c-5.226,19.124-16.177,33.498-31.664,41.568c-17.206,8.964-39.062,9.918-64.958,2.841
				C336.887,451.651,332.742,450.147,328.604,448.281z M251.61,357.526c9.896,15.388,43.423,64.102,81.309,81.185
				c3.641,1.642,7.264,2.958,10.769,3.916c23.264,6.361,42.556,5.677,57.342-2.026c12.829-6.682,21.951-18.792,26.386-35.022
				c8.2-29.992-4.247-54.158-35.044-68.044c-5.488-2.476-11.611-4.643-18.197-6.444C332.022,319.572,269.498,348.532,251.61,357.526
				z"/>
		</g>
	</g>
	<g>
		<g>
			<g>
				<path d="M407.98,237.623c0,0,15.29-10.33,27.084-15.049c11.792-4.72,42.492-6.04,42.492-6.04s-26.216,8.604-33.674,11.96
					c-7.456,3.358-26.921,18.413-26.921,18.413L407.98,237.623z"/>
				<path d="M416.862,248.312l-10.507-10.859l1.035-0.702c0.154-0.104,15.521-10.447,27.282-15.154
					c11.824-4.73,41.579-6.059,42.841-6.113l7.603-0.327l-7.229,2.373c-0.265,0.085-26.25,8.626-33.573,11.92
					c-7.257,3.269-26.517,18.136-26.709,18.286L416.862,248.312z M409.611,237.799l7.454,7.705
					c3.69-2.831,19.647-14.931,26.386-17.967c4.942-2.224,17.795-6.648,26.155-9.462c-9.888,0.728-26.357,2.355-34.152,5.474
					C425.654,227.469,413.248,235.413,409.611,237.799z"/>
			</g>
			<g>
				<circle fill="#FFF200" cx="468.975" cy="217.399" r="18.171"/>
				<path d="M459.338,238.751c-2.699-1.217-5.121-2.92-7.195-5.065c-4.351-4.496-6.69-10.417-6.588-16.672
					c0.104-6.254,2.639-12.095,7.134-16.444c6.938-6.718,17.113-8.494,25.917-4.524c2.702,1.219,5.125,2.924,7.2,5.069
					c8.978,9.279,8.733,24.135-0.543,33.115C478.319,240.947,468.144,242.722,459.338,238.751z M474.29,205.616
					c-4.856-2.19-10.472-1.212-14.301,2.496c-2.481,2.403-3.879,5.625-3.938,9.076c-0.057,3.452,1.234,6.717,3.636,9.199
					c1.146,1.185,2.482,2.126,3.966,2.795c4.86,2.192,10.476,1.211,14.308-2.497c5.121-4.953,5.254-13.15,0.297-18.272
					C477.113,207.227,475.777,206.286,474.29,205.616z"/>
			</g>
		</g>
		<g>
			<g>
				<path d="M353.789,181.618c0,0,10.827-14.939,15.929-26.574c5.107-11.63,7.436-42.27,7.436-42.27s-9.46,25.918-13.062,33.262
					c-3.601,7.344-19.286,26.3-19.286,26.3L353.789,181.618z"/>
				<path d="M353.904,183.247l-10.508-10.856l0.6-0.725c0.157-0.188,15.649-18.942,19.154-26.091
					c3.534-7.211,12.924-32.901,13.016-33.161l2.611-7.147l-0.578,7.587c-0.094,1.259-2.399,30.953-7.52,42.614
					c-5.088,11.602-15.932,26.616-16.041,26.766L353.904,183.247z M346.211,172.279l7.453,7.702
					c2.506-3.556,10.854-15.694,15.093-25.357c3.377-7.689,5.543-24.097,6.595-33.955c-3.088,8.263-7.932,20.964-10.317,25.829
					C361.779,153.135,349.16,168.684,346.211,172.279z"/>
			</g>
			<g>
				<path fill="#FFF200" d="M363.366,108.265c-7.209,6.979-7.396,18.485-0.417,25.697c6.978,7.211,18.479,7.4,25.693,0.421
					s7.401-18.485,0.421-25.696C382.087,101.477,370.584,101.287,363.366,108.265z"/>
				<path d="M366.374,142.678c0,0,0,0-0.002-0.001c-2.7-1.217-5.121-2.922-7.195-5.064c-8.98-9.281-8.738-24.137,0.538-33.118
					c6.949-6.718,17.123-8.492,25.924-4.523c2.701,1.218,5.123,2.922,7.197,5.067c4.351,4.495,6.689,10.415,6.589,16.671
					c-0.103,6.255-2.637,12.096-7.132,16.447C385.35,144.871,375.177,146.647,366.374,142.678z M381.323,109.542
					c-4.856-2.19-10.473-1.21-14.309,2.497c-5.116,4.954-5.25,13.152-0.295,18.273c1.149,1.186,2.483,2.126,3.97,2.797
					c4.857,2.19,10.472,1.21,14.304-2.498c2.481-2.4,3.878-5.623,3.935-9.075c0.055-3.451-1.234-6.718-3.636-9.198
					C384.145,111.152,382.811,110.212,381.323,109.542z"/>
			</g>
		</g>
	</g>
	<g>
		<path fill="#12090A" d="M193.987,439.167c-21.563,20.869-95.169,41.269-95.169,41.269s22.814-72.889,44.378-93.757
			L193.987,439.167z"/>
		<path d="M90.93,488.067l2.88-9.2c0.946-3.027,23.468-74.41,45.736-95.959l3.771-3.65l58.09,60.029l-3.771,3.65
			c-22.266,21.549-94.356,41.708-97.416,42.557L90.93,488.067z M143.311,394.347c-14.808,18.207-29.972,59.555-36.352,78.213
			c18.858-5.764,60.688-19.556,79.37-33.758L143.311,394.347z"/>
	</g>
	<g>
		<path fill="#FFF200" d="M281.408,423.452c-35.704,34.551-90.719,35.621-122.875,2.386c-32.156-33.224-29.276-88.174,6.429-122.723
			c35.707-34.553,90.718-35.621,122.87-2.393C319.991,333.956,317.115,388.904,281.408,423.452z"/>
		<path d="M180.569,447.632c-9.716-4.381-18.397-10.485-25.807-18.144c-16.577-17.127-24.995-40.138-23.704-64.789
			c1.284-24.511,12.028-47.723,30.253-65.355c28.471-27.553,70.462-35.754,104.491-20.409c9.713,4.38,18.394,10.481,25.802,18.139
			c16.578,17.132,24.998,40.143,23.707,64.795c-1.283,24.511-12.026,47.724-30.253,65.356
			C256.589,454.773,214.598,462.976,180.569,447.632z M261.487,288.504c-30.143-13.592-67.467-6.205-92.875,18.382
			c-16.313,15.784-25.926,36.511-27.07,58.361c-1.138,21.711,6.237,41.93,20.761,56.942c6.486,6.699,14.082,12.04,22.581,15.872
			c30.144,13.592,67.468,6.206,92.875-18.38c16.312-15.784,25.924-36.511,27.067-58.361c1.138-21.71-6.237-41.934-20.767-56.947
			C277.578,297.675,269.983,292.336,261.487,288.504z"/>
	</g>
	<g>
		<path fill="#FFF200" d="M399.312,328.832c-40.297,39-104.583,37.94-143.578-2.355c-38.997-40.303-37.941-104.587,2.362-143.583
			c40.298-38.999,89.22-23.076,128.215,17.225C425.311,240.418,439.615,289.838,399.312,328.832z"/>
		<path d="M284.769,353.226c-12.305-5.548-23.341-13.32-32.807-23.101c-19.832-20.499-30.501-47.495-30.033-76.017
			c0.47-28.521,12.017-55.152,32.517-74.988c26.063-25.222,57.385-30.644,90.579-15.676c15.426,6.955,30.588,18.066,45.059,33.023
			c21.204,21.91,34.225,45.322,37.655,67.702c3.885,25.33-4.683,48.996-24.775,68.435
			C371.313,363.235,324.92,371.331,284.769,353.226z M340.709,173.015c-28.944-13.051-56.25-8.332-78.964,13.65
			c-18.483,17.886-28.896,41.898-29.32,67.615c-0.421,25.719,9.196,50.06,27.083,68.545c8.535,8.822,18.487,15.831,29.576,20.831
			c36.205,16.325,78.039,9.025,106.579-18.595c17.792-17.216,25.092-37.168,21.698-59.302
			c-3.099-20.216-15.139-41.651-34.819-61.991C368.992,189.769,354.92,179.423,340.709,173.015z"/>
	</g>
	<g>
		<g>
			<path d="M339.315,236.386c5.734-9.144,6.109-19.604,0.171-25.741c-7.443-7.69-21.991-5.688-32.492,4.476
				c-10.503,10.162-12.986,24.637-5.543,32.331c5.646,5.835,15.385,6.089,24.341,1.434l-5.671-20.197L339.315,236.386z"/>
			<path d="M303.82,255.403L303.82,255.403c-2.33-1.051-4.396-2.497-6.142-4.302c-9.442-9.761-6.902-27.595,5.665-39.753
				c10.068-9.745,23.643-13.223,33.771-8.656c2.33,1.051,4.396,2.497,6.142,4.302c7.509,7.758,7.711,20.689,0.507,32.178
				l-2.331,3.717l-13.377-5.365l3.943,14.049l-3.787,1.968C319.793,257.918,310.904,258.598,303.82,255.403z M332.8,212.263
				c-6.05-2.728-15.367,0.061-22.157,6.629c-8.264,7.997-10.745,19.403-5.42,24.909c3.104,3.207,8.591,3.901,14.269,2.059
				l-7.302-26.009l24.677,9.896c2.509-6.036,2.16-12.028-1.152-15.453C334.896,213.45,333.914,212.765,332.8,212.263z"/>
		</g>
		<g>
			<path d="M377.965,276.324c5.734-9.139,6.112-19.6,0.172-25.735c-7.442-7.692-21.989-5.69-32.496,4.473
				c-10.503,10.161-12.984,24.638-5.539,32.332c5.648,5.835,15.385,6.089,24.342,1.435l-5.675-20.199L377.965,276.324z"/>
			<path d="M342.473,295.346c-0.003-0.002-0.003-0.002-0.003-0.002c-2.328-1.049-4.395-2.496-6.141-4.299
				c-9.444-9.762-6.903-27.595,5.663-39.756c10.07-9.744,23.646-13.221,33.773-8.654c2.33,1.051,4.397,2.499,6.142,4.302
				c7.508,7.757,7.71,20.688,0.503,32.176l-2.329,3.715l-13.379-5.363l3.949,14.051l-3.787,1.969
				C358.444,297.86,349.554,298.539,342.473,295.346z M371.451,252.205c-6.146-2.772-15.26-0.046-22.161,6.63
				c-8.264,7.995-10.744,19.402-5.416,24.909c0.818,0.844,1.8,1.529,2.911,2.03c0.003,0.001,0.003,0.001,0.003,0.001
				c3.111,1.402,7.174,1.385,11.353,0.028l-7.307-26.011l24.683,9.895c2.51-6.033,2.162-12.025-1.151-15.449
				C373.545,253.393,372.566,252.707,371.451,252.205z"/>
		</g>
	</g>
	<g>
		<path d="M288.75,263.902c-15.851,18.688-20.96,40.402-11.412,48.503c9.548,8.099,30.137-0.488,45.986-19.175L288.75,263.902z"/>
		<path d="M278.022,318.979c-0.002-0.001-0.002-0.001-0.004-0.002c-1.482-0.668-2.854-1.533-4.075-2.57
			c-11.938-10.125-7.193-34.68,10.803-55.898l3.395-4.004l42.584,36.119l-3.398,4.003
			C311.221,315.613,290.945,324.806,278.022,318.979z M289.481,271.406c-12.108,16.227-14.541,32.082-8.748,36.996
			c0.475,0.402,1.014,0.74,1.602,1.006c6.494,2.928,20.585-2.338,33.463-15.68L289.481,271.406z"/>
	</g>
	<g>
		<path fill="#12090A" d="M175.265,295.396c-3.384,2.505-6.655,5.25-9.772,8.266c-8.555,8.279-15.206,17.732-19.96,27.776
			c4.507,21.548,18.804,47.112,40.852,69.901c21.066,21.766,44.888,36.532,65.619,42.358c10.75-4.442,20.955-11.008,29.935-19.7
			c2.771-2.682,5.325-5.502,7.702-8.411c-22.216-4.191-49.077-19.741-72.528-43.977C192.854,346.538,178.037,318.14,175.265,295.396
			z"/>
		<path d="M235.064,443.042c-18.133-8.176-36.271-21.335-52.452-38.052c-21.938-22.676-37.327-49.094-42.219-72.479l-0.36-1.724
			l0.754-1.595c5.174-10.93,12.258-20.791,21.054-29.303c3.174-3.074,6.639-6.006,10.297-8.713l7.244-5.364l1.089,8.946
			c2.75,22.523,17.855,49.888,40.412,73.2c15.255,15.766,32.266,28.133,49.191,35.765c7.156,3.228,14.066,5.482,20.539,6.705
			l8.684,1.639l-5.594,6.839c-2.662,3.256-5.318,6.157-8.121,8.864c-9.239,8.947-19.864,15.939-31.574,20.779l-1.678,0.691
			l-1.746-0.491C245.552,447.337,240.33,445.417,235.064,443.042z M151.051,332.089c4.888,21.08,19.057,44.88,39.107,65.602
			c15.264,15.771,32.284,28.145,49.222,35.782c4.177,1.883,8.306,3.447,12.295,4.662c9.823-4.295,18.768-10.314,26.611-17.908
			c0.547-0.529,1.089-1.068,1.629-1.617c-4.612-1.368-9.346-3.145-14.155-5.313c-18.125-8.173-36.252-21.325-52.42-38.036
			c-21.215-21.927-36.299-47.518-41.653-70.19c-0.87,0.775-1.716,1.564-2.543,2.363
			C161.688,314.648,155.605,322.938,151.051,332.089z"/>
	</g>
</g>
</svg>
