<?xml version="1.0" encoding="utf-8"?>
<!-- Generator: Adobe Illustrator 16.0.0, SVG Export Plug-In . SVG Version: 6.00 Build 0)  -->
<!DOCTYPE svg PUBLIC "-//W3C//DTD SVG 1.1//EN" "http://www.w3.org/Graphics/SVG/1.1/DTD/svg11.dtd">
<svg version="1.1" id="Layer_1" xmlns="http://www.w3.org/2000/svg" xmlns:xlink="http://www.w3.org/1999/xlink" x="0px" y="0px"
	 width="1024px" height="768px" viewBox="-10.481 0.391 1024 768" enable-background="new -10.481 0.391 1024 768"
	 xml:space="preserve">
<symbol  id="flower_1_" viewBox="-32.887 -32.887 65.774 65.773">
	<g>
		<path fill="#EC008C" stroke="#000000" stroke-miterlimit="10" d="M-16.194,13.32C-7.25,13.32,0,0,0,0s-7.25-13.32-16.193-13.32
			c-8.943,0-16.194,5.964-16.194,13.32S-25.137,13.32-16.194,13.32z"/>
		<path fill="#EC008C" stroke="#000000" stroke-miterlimit="10" d="M-13.32-16.193C-13.32-7.25,0,0,0,0s13.32-7.25,13.32-16.193
			c0-8.942-5.964-16.193-13.32-16.193C-7.357-32.387-13.32-25.137-13.32-16.193z"/>
		<path fill="#EC008C" stroke="#000000" stroke-miterlimit="10" d="M16.193-13.32C7.25-13.32,0,0,0,0s7.25,13.32,16.193,13.32
			c8.943,0,16.194-5.964,16.194-13.32S25.137-13.32,16.193-13.32z"/>
		<path fill="#EC008C" stroke="#000000" stroke-miterlimit="10" d="M13.32,16.193C13.32,7.25,0,0,0,0s-13.32,7.25-13.32,16.193
			c0,8.942,5.963,16.193,13.32,16.193C7.356,32.387,13.32,25.137,13.32,16.193z"/>
	</g>
	<path fill="#FFF200" stroke="#000000" stroke-miterlimit="10" d="M7.5,0c0-3.409-3.358-6.173-7.5-6.173S-7.5-3.409-7.5,0
		S-4.142,6.173,0,6.173S7.5,3.409,7.5,0z"/>
</symbol>
<g id="Layer_3">
	<rect x="-10.481" y="0.391" fill="#75C26B" stroke="#000000" stroke-miterlimit="10" width="1024" height="768"/>
</g>
<g id="Layer_4" display="none">
	
		<use xlink:href="#flower_1_"  width="65.774" height="65.773" x="-32.887" y="-32.887" transform="matrix(1 0 0 -1 161.5 61.0005)" display="inline" overflow="visible"/>
	
		<use xlink:href="#flower_1_"  width="65.774" height="65.773" x="-32.887" y="-32.887" transform="matrix(1 0 0 -1 51.5 203.5005)" display="inline" overflow="visible"/>
	
		<use xlink:href="#flower_1_"  width="65.774" height="65.773" x="-32.887" y="-32.887" transform="matrix(1 0 0 -1 504 117.5005)" display="inline" overflow="visible"/>
	
		<use xlink:href="#flower_1_"  width="65.774" height="65.773" x="-32.887" y="-32.887" transform="matrix(1 0 0 -1 89 362.0005)" display="inline" overflow="visible"/>
</g>
<g id="Layer_5" display="none">
	<g id="flower" display="inline">
		<g>
			<path fill="#5AC7ED" stroke="#000000" stroke-miterlimit="10" d="M216.806,138.18c8.944,0,16.193,13.32,16.193,13.32
				s-7.25,13.32-16.193,13.32c-8.943,0-16.193-5.964-16.193-13.32S207.863,138.18,216.806,138.18z"/>
			<path fill="#5AC7ED" stroke="#000000" stroke-miterlimit="10" d="M219.68,167.693c0-8.943,13.32-16.193,13.32-16.193
				s13.32,7.25,13.32,16.193s-5.963,16.193-13.32,16.193C225.643,183.887,219.68,176.637,219.68,167.693z"/>
			<path fill="#5AC7ED" stroke="#000000" stroke-miterlimit="10" d="M249.193,164.82C240.25,164.82,233,151.5,233,151.5
				s7.25-13.32,16.193-13.32s16.193,5.964,16.193,13.32S258.137,164.82,249.193,164.82z"/>
			<path fill="#5AC7ED" stroke="#000000" stroke-miterlimit="10" d="M246.32,135.307c0,8.943-13.32,16.193-13.32,16.193
				s-13.32-7.25-13.32-16.193s5.963-16.193,13.32-16.193C240.356,119.113,246.32,126.363,246.32,135.307z"/>
		</g>
		<ellipse fill="#FFF200" stroke="#000000" stroke-miterlimit="10" cx="233" cy="151.5" rx="7.5" ry="6.173"/>
	</g>
</g>
<g id="Layer_2">
	<g>
		<path fill="#FFFFFF" stroke="#000000" stroke-width="5" stroke-miterlimit="10" d="M694.073,357.893
			c25.399,32.897,94.548,42.9,94.548,42.9s7.815-69.43-17.584-102.328c-25.407-32.898-53.158-33.222-74.411-16.814
			C675.373,298.063,668.668,324.992,694.073,357.893z"/>
		<path fill="#FFFFFF" stroke="#000000" stroke-width="5" stroke-miterlimit="10" d="M897.5,438.729
			c-41.051,6.49-98.207-33.695-98.207-33.695s41.972-55.859,83.023-62.349c41.057-6.491,61.461,12.32,65.653,38.842
			C952.165,408.049,938.562,432.238,897.5,438.729z"/>
	</g>
	<g>
		<g>
			<path stroke="#000000" stroke-miterlimit="10" d="M877.087,270.276c0,0,7.472-12.106,14.267-19.159
				c6.791-7.054,27.951-17.711,27.951-17.711s-15.699,14.355-19.876,19.077c-4.176,4.724-13.085,21.472-13.085,21.472
				L877.087,270.276z"/>
			<circle fill="#FFF200" stroke="#000000" stroke-width="5" stroke-miterlimit="10" cx="913.547" cy="236.736" r="14.01"/>
		</g>
		<g>
			<path stroke="#000000" stroke-miterlimit="10" d="M821.254,248.089c0,0,2.874-13.931,2.775-23.723
				c-0.099-9.794-8.171-32.065-8.171-32.065s1.564,21.213,1.362,27.516c-0.204,6.303-5.224,24.596-5.224,24.596L821.254,248.089z"/>
			<circle fill="#FFF200" stroke="#000000" stroke-width="5" stroke-miterlimit="10" cx="817.76" cy="198.674" r="14.011"/>
		</g>
	</g>
	<path fill="#12090A" stroke="#000000" stroke-width="5" stroke-miterlimit="10" d="M790.559,479.741
		c-8.538,21.498-53.805,59.16-53.805,59.16s-7.064-58.453,1.476-79.956L790.559,479.741z"/>
	
		<ellipse transform="matrix(0.3693 -0.9293 0.9293 0.3693 108.6928 994.472)" fill="#FFF200" stroke="#000000" stroke-width="5" stroke-miterlimit="10" cx="787" cy="417.159" rx="69.356" ry="64.55"/>
	<path fill="#FFF200" stroke="#000000" stroke-width="5" stroke-miterlimit="10" d="M899.899,337.127
		c-15.962,40.178-61.478,59.807-101.655,43.844c-40.178-15.965-59.809-61.481-43.844-101.661
		c15.966-40.179,55.396-44.491,95.572-28.526C890.152,266.749,915.867,296.95,899.899,337.127z"/>
	<g>
		<path stroke="#000000" stroke-width="5" stroke-miterlimit="10" d="M828.438,291.167c1.132-8.242-1.92-15.714-8.038-18.144
			c-7.668-3.046-17.257,2.971-21.418,13.443c-4.159,10.47-1.316,21.43,6.351,24.479c5.82,2.312,12.742-0.596,17.564-6.706
			l-10.387-12.398L828.438,291.167z"/>
		<path stroke="#000000" stroke-width="5" stroke-miterlimit="10" d="M868.257,306.99c1.134-8.241-1.917-15.712-8.035-18.142
			c-7.666-3.047-17.257,2.97-21.42,13.441c-4.159,10.47-1.318,21.43,6.354,24.479c5.819,2.31,12.743-0.596,17.563-6.706
			l-10.391-12.397L868.257,306.99z"/>
	</g>
	<path stroke="#000000" stroke-width="5" stroke-miterlimit="10" d="M801.618,326.531c-5.216,18.159-1.925,35.038,7.352,37.705
		c9.277,2.665,21.024-9.894,26.243-28.049L801.618,326.531z"/>
	<path fill="#12090A" stroke="#000000" stroke-width="5" stroke-miterlimit="10" d="M731.84,384.629
		c-1.586,2.833-3.014,5.798-4.248,8.906c-3.39,8.53-5.067,17.282-5.228,25.847c9.996,13.718,28.147,27.152,50.864,36.184
		c21.701,8.622,43.125,11.45,59.54,8.975c6.147-6.529,11.239-14.377,14.797-23.333c1.099-2.762,1.998-5.555,2.747-8.352
		c-16.942,4.094-40.749,1.679-64.911-7.922C760.408,414.998,740.996,399.735,731.84,384.629z"/>
</g>
<g id="Layer_1_1_">
	<text transform="matrix(1 0 0 1 80.0801 341.3911)" fill="#FFF200" font-family="'CooperBlack'" font-size="214.6546">Buzzy</text>
	
		<text transform="matrix(1 0 0 1 80.0801 341.3911)" fill="none" stroke="#000000" stroke-width="6" stroke-miterlimit="10" font-family="'CooperBlack'" font-size="214.6546">Buzzy</text>
	<text transform="matrix(1 0 0 1 92.709 543.7266)" fill="#FFF200" font-family="'CooperBlack'" font-size="214.6546">Bingo</text>
	
		<text transform="matrix(1 0 0 1 92.709 543.7266)" fill="none" stroke="#000000" stroke-width="6" stroke-miterlimit="10" font-family="'CooperBlack'" font-size="214.6546">Bingo</text>
</g>
</svg>
