<?xml version="1.0" encoding="utf-8"?>
<!-- Generator: Adobe Illustrator 16.0.0, SVG Export Plug-In . SVG Version: 6.00 Build 0)  -->
<!DOCTYPE svg PUBLIC "-//W3C//DTD SVG 1.1//EN" "http://www.w3.org/Graphics/SVG/1.1/DTD/svg11.dtd">
<svg version="1.1" id="Layer_1" xmlns="http://www.w3.org/2000/svg" xmlns:xlink="http://www.w3.org/1999/xlink" x="0px" y="0px"
	 width="641.072px" height="960.562px" viewBox="0 0 641.072 960.562" enable-background="new 0 0 641.072 960.562"
	 xml:space="preserve">
<symbol  id="flower_1_" viewBox="-32.887 -32.887 65.774 65.773">
	<g>
		<path fill="#EC008C" stroke="#000000" stroke-miterlimit="10" d="M-16.194,13.32C-7.25,13.32,0,0,0,0s-7.25-13.32-16.193-13.32
			c-8.943,0-16.194,5.964-16.194,13.32S-25.137,13.32-16.194,13.32z"/>
		<path fill="#EC008C" stroke="#000000" stroke-miterlimit="10" d="M-13.32-16.193C-13.32-7.25,0,0,0,0s13.32-7.25,13.32-16.193
			c0-8.942-5.964-16.193-13.32-16.193C-7.357-32.387-13.32-25.137-13.32-16.193z"/>
		<path fill="#EC008C" stroke="#000000" stroke-miterlimit="10" d="M16.193-13.32C7.25-13.32,0,0,0,0s7.25,13.32,16.193,13.32
			c8.943,0,16.194-5.964,16.194-13.32S25.137-13.32,16.193-13.32z"/>
		<path fill="#EC008C" stroke="#000000" stroke-miterlimit="10" d="M13.32,16.193C13.32,7.25,0,0,0,0s-13.32,7.25-13.32,16.193
			c0,8.942,5.963,16.193,13.32,16.193C7.356,32.387,13.32,25.137,13.32,16.193z"/>
	</g>
	<path fill="#FFF200" stroke="#000000" stroke-miterlimit="10" d="M7.5,0c0-3.409-3.358-6.173-7.5-6.173S-7.5-3.409-7.5,0
		S-4.142,6.173,0,6.173S7.5,3.409,7.5,0z"/>
</symbol>
<g id="Layer_3">
	<rect x="26.036" y="140.781" fill="#75C26B" stroke="#000000" stroke-miterlimit="10" width="589" height="589"/>
</g>
<g id="Layer_4">
	
		<use xlink:href="#flower_1_"  width="65.774" height="65.773" x="-32.887" y="-32.887" transform="matrix(1 0 0 -1 204.2861 301.6665)" overflow="visible"/>
	
		<use xlink:href="#flower_1_"  width="65.774" height="65.773" x="-32.887" y="-32.887" transform="matrix(1 0 0 -1 265.3872 476.5532)" overflow="visible"/>
	
		<use xlink:href="#flower_1_"  width="65.774" height="65.773" x="-32.887" y="-32.887" transform="matrix(1 0 0 -1 450.4932 344.8462)" overflow="visible"/>
	
		<use xlink:href="#flower_1_"  width="65.774" height="65.773" x="-32.887" y="-32.887" transform="matrix(1 0 0 -1 500.8477 550.4531)" overflow="visible"/>
</g>
<g id="Layer_5">
	<g id="flower">
		<g>
			<path fill="#5AC7ED" stroke="#000000" stroke-miterlimit="10" d="M256.693,291.581c8.944,0,16.193,13.32,16.193,13.32
				s-7.25,13.32-16.193,13.32c-8.943,0-16.193-5.964-16.193-13.32S247.75,291.581,256.693,291.581z"/>
			<path fill="#5AC7ED" stroke="#000000" stroke-miterlimit="10" d="M259.567,321.093c0-8.943,13.32-16.193,13.32-16.193
				s13.32,7.25,13.32,16.193s-5.963,16.193-13.32,16.193C265.53,337.288,259.567,330.038,259.567,321.093z"/>
			<path fill="#5AC7ED" stroke="#000000" stroke-miterlimit="10" d="M289.08,318.22c-8.943,0-16.193-13.32-16.193-13.32
				s7.25-13.32,16.193-13.32s16.193,5.964,16.193,13.32S298.024,318.22,289.08,318.22z"/>
			<path fill="#5AC7ED" stroke="#000000" stroke-miterlimit="10" d="M286.207,288.708c0,8.943-13.32,16.193-13.32,16.193
				s-13.32-7.25-13.32-16.193s5.963-16.193,13.32-16.193C280.243,272.513,286.207,279.763,286.207,288.708z"/>
		</g>
		<ellipse fill="#FFF200" stroke="#000000" stroke-miterlimit="10" cx="272.887" cy="304.9" rx="7.5" ry="6.173"/>
	</g>
</g>
<g id="Layer_2">
	<g>
		<path fill="#FFFFFF" stroke="#000000" stroke-width="5" stroke-miterlimit="10" d="M441.24,435.648
			c15.691,20.323,58.41,26.503,58.41,26.503s4.828-42.893-10.863-63.216c-15.696-20.324-32.84-20.524-45.97-10.387
			C429.688,398.687,425.545,415.323,441.24,435.648z"/>
		<path fill="#FFFFFF" stroke="#000000" stroke-width="5" stroke-miterlimit="10" d="M566.914,485.588
			c-25.361,4.01-60.671-20.815-60.671-20.815s25.929-34.509,51.29-38.519c25.364-4.01,37.97,7.611,40.56,23.996
			C600.685,466.635,592.28,481.578,566.914,485.588z"/>
	</g>
	<g>
		<g>
			<path stroke="#000000" stroke-miterlimit="10" d="M554.303,381.521c0,0,4.616-7.479,8.813-11.836
				c4.195-4.358,17.268-10.942,17.268-10.942s-9.698,8.869-12.278,11.786c-2.58,2.918-8.084,13.265-8.084,13.265L554.303,381.521z"
				/>
			<circle fill="#FFF200" stroke="#000000" stroke-width="5" stroke-miterlimit="10" cx="576.827" cy="360.8" r="8.655"/>
		</g>
		<g>
			<path stroke="#000000" stroke-miterlimit="10" d="M519.81,367.814c0,0,1.776-8.606,1.715-14.656
				c-0.061-6.05-5.048-19.809-5.048-19.809s0.967,13.105,0.842,16.999c-0.126,3.894-3.227,15.195-3.227,15.195L519.81,367.814z"/>
			<circle fill="#FFF200" stroke="#000000" stroke-width="5" stroke-miterlimit="10" cx="517.651" cy="337.286" r="8.656"/>
		</g>
	</g>
	<path fill="#12090A" stroke="#000000" stroke-width="5" stroke-miterlimit="10" d="M500.848,510.924
		c-5.275,13.282-33.24,36.55-33.24,36.55s-4.364-36.112,0.912-49.396L500.848,510.924z"/>
	
		<ellipse transform="matrix(0.3693 -0.9293 0.9293 0.3693 -124.3802 761.2554)" fill="#FFF200" stroke="#000000" stroke-width="5" stroke-miterlimit="10" cx="498.648" cy="472.262" rx="42.847" ry="39.878"/>
	<path fill="#FFF200" stroke="#000000" stroke-width="5" stroke-miterlimit="10" d="M568.396,422.82
		c-9.861,24.821-37.98,36.947-62.802,27.086c-24.821-9.863-36.948-37.982-27.085-62.804c9.862-24.822,34.222-27.486,59.042-17.623
		C562.375,379.342,578.261,397.999,568.396,422.82z"/>
	<g>
		<path stroke="#000000" stroke-width="5" stroke-miterlimit="10" d="M524.248,394.427c0.699-5.092-1.186-9.708-4.966-11.209
			c-4.737-1.882-10.661,1.835-13.231,8.305c-2.569,6.468-0.813,13.239,3.923,15.123c3.596,1.428,7.872-0.368,10.851-4.143
			l-6.416-7.659L524.248,394.427z"/>
		<path stroke="#000000" stroke-width="5" stroke-miterlimit="10" d="M548.848,404.202c0.7-5.091-1.184-9.707-4.964-11.208
			c-4.736-1.882-10.661,1.835-13.232,8.304c-2.57,6.468-0.814,13.239,3.925,15.123c3.595,1.427,7.872-0.368,10.85-4.143
			l-6.418-7.659L548.848,404.202z"/>
	</g>
	<path stroke="#000000" stroke-width="5" stroke-miterlimit="10" d="M507.68,416.274c-3.223,11.218-1.189,21.646,4.541,23.293
		c5.731,1.646,12.989-6.112,16.213-17.328L507.68,416.274z"/>
	<path fill="#12090A" stroke="#000000" stroke-width="5" stroke-miterlimit="10" d="M464.571,452.166
		c-0.979,1.75-1.861,3.582-2.624,5.502c-2.094,5.27-3.131,10.677-3.229,15.968c6.176,8.475,17.389,16.774,31.423,22.354
		c13.407,5.326,26.643,7.073,36.783,5.545c3.798-4.033,6.943-8.882,9.141-14.414c0.68-1.707,1.234-3.433,1.697-5.16
		c-10.467,2.529-25.174,1.037-40.101-4.895C482.221,470.928,470.229,461.498,464.571,452.166z"/>
</g>
<g id="Layer_1_1_">
	<text transform="matrix(1 0 0 1 61.9248 425.4531)" fill="#FFF200" font-family="'CooperBlack'" font-size="132.61">Buzzy</text>
	
		<text transform="matrix(1 0 0 1 61.9248 425.4531)" fill="none" stroke="#000000" stroke-width="6" stroke-miterlimit="10" font-family="'CooperBlack'" font-size="132.61">Buzzy</text>
	<text transform="matrix(1 0 0 1 69.7266 550.4531)" fill="#FFF200" font-family="'CooperBlack'" font-size="132.61">Bingo</text>
	
		<text transform="matrix(1 0 0 1 69.7266 550.4531)" fill="none" stroke="#000000" stroke-width="6" stroke-miterlimit="10" font-family="'CooperBlack'" font-size="132.61">Bingo</text>
</g>
</svg>
