<?xml version="1.0" encoding="utf-8"?>
<!-- Generator: Adobe Illustrator 16.0.0, SVG Export Plug-In . SVG Version: 6.00 Build 0)  -->
<!DOCTYPE svg PUBLIC "-//W3C//DTD SVG 1.1//EN" "http://www.w3.org/Graphics/SVG/1.1/DTD/svg11.dtd">
<svg version="1.1" xmlns="http://www.w3.org/2000/svg" xmlns:xlink="http://www.w3.org/1999/xlink" x="0px" y="0px" width="556px"
	 height="407.471px" viewBox="0 0 556 407.471" enable-background="new 0 0 556 407.471" xml:space="preserve">
<symbol  id="flower" viewBox="-32.887 -32.887 65.774 65.773">
	<g>
		<path fill="#EC008C" stroke="#000000" stroke-miterlimit="10" d="M-16.194,13.32C-7.25,13.32,0,0,0,0s-7.25-13.32-16.193-13.32
			S-32.387-7.356-32.387,0S-25.137,13.32-16.194,13.32z"/>
		<path fill="#EC008C" stroke="#000000" stroke-miterlimit="10" d="M-13.32-16.193C-13.32-7.25,0,0,0,0s13.32-7.25,13.32-16.193
			S7.356-32.387,0-32.387C-7.357-32.387-13.32-25.137-13.32-16.193z"/>
		<path fill="#EC008C" stroke="#000000" stroke-miterlimit="10" d="M16.193-13.32C7.25-13.32,0,0,0,0s7.25,13.32,16.193,13.32
			S32.387,7.356,32.387,0S25.137-13.32,16.193-13.32z"/>
		<path fill="#EC008C" stroke="#000000" stroke-miterlimit="10" d="M13.32,16.193C13.32,7.25,0,0,0,0s-13.32,7.25-13.32,16.193
			S-7.357,32.387,0,32.387C7.356,32.387,13.32,25.137,13.32,16.193z"/>
	</g>
	<path fill="#FFF200" stroke="#000000" stroke-miterlimit="10" d="M7.5,0c0-3.409-3.358-6.173-7.5-6.173S-7.5-3.409-7.5,0
		S-4.142,6.173,0,6.173S7.5,3.409,7.5,0z"/>
</symbol>
<g id="Layer_3">
	<rect fill="#75C26B" stroke="#000000" stroke-miterlimit="10" width="556" height="407.471"/>
</g>
<g id="Layer_4">
	
		<use xlink:href="#flower"  width="65.774" height="65.773" x="-32.887" y="-32.887" transform="matrix(1 0 0 -1 161.5 61)" overflow="visible"/>
	
		<use xlink:href="#flower"  width="65.774" height="65.773" x="-32.887" y="-32.887" transform="matrix(1 0 0 -1 51.5 203.5)" overflow="visible"/>
	
		<use xlink:href="#flower"  width="65.774" height="65.773" x="-32.887" y="-32.887" transform="matrix(1 0 0 -1 504 117.5)" overflow="visible"/>
	
		<use xlink:href="#flower"  width="65.774" height="65.773" x="-32.887" y="-32.887" transform="matrix(1 0 0 -1 89 362)" overflow="visible"/>
</g>
<g id="Layer_2">
	<g>
		<path fill="#FFFFFF" stroke="#000000" stroke-miterlimit="10" d="M380.077,73.553c8.663,11.22,32.245,14.631,32.245,14.631
			s2.666-23.678-5.997-34.898c-8.665-11.22-18.129-11.33-25.377-5.734C373.7,53.149,371.413,62.333,380.077,73.553z"/>
		<path fill="#FFFFFF" stroke="#000000" stroke-miterlimit="10" d="M449.455,101.122c-14.001,2.213-33.493-11.492-33.493-11.492
			s14.313-19.05,28.314-21.264c14.002-2.213,20.961,4.202,22.391,13.247C468.098,90.659,463.458,98.908,449.455,101.122z"/>
	</g>
	<g>
		<g>
			<path stroke="#000000" stroke-miterlimit="10" d="M442.493,43.673c0,0,2.548-4.128,4.865-6.534
				c2.316-2.406,9.532-6.041,9.532-6.041s-5.354,4.896-6.778,6.506c-1.425,1.611-4.463,7.323-4.463,7.323L442.493,43.673z"/>
			<circle fill="#FFF200" stroke="#000000" stroke-miterlimit="10" cx="454.927" cy="32.233" r="4.778"/>
		</g>
		<g>
			<path stroke="#000000" stroke-miterlimit="10" d="M423.451,36.106c0,0,0.98-4.751,0.946-8.091
				c-0.033-3.34-2.786-10.936-2.786-10.936s0.533,7.235,0.464,9.384s-1.78,8.388-1.78,8.388L423.451,36.106z"/>
			<circle fill="#FFF200" stroke="#000000" stroke-miterlimit="10" cx="422.26" cy="19.253" r="4.778"/>
		</g>
	</g>
	<path fill="#12090A" stroke="#000000" stroke-miterlimit="10" d="M412.983,115.108c-2.913,7.333-18.351,20.177-18.351,20.177
		s-2.409-19.936,0.504-27.269L412.983,115.108z"/>
	
		<ellipse transform="matrix(0.9293 0.3693 -0.3693 0.9293 63.7296 -145.4331)" fill="#FFF200" stroke="#000000" stroke-miterlimit="10" cx="411.781" cy="93.765" rx="22.014" ry="23.654"/>
	<path fill="#FFF200" stroke="#000000" stroke-miterlimit="10" d="M450.273,66.472c-5.444,13.703-20.967,20.397-34.669,14.952
		c-13.703-5.445-20.397-20.967-14.952-34.67c5.444-13.703,18.892-15.174,32.594-9.729C446.949,42.47,455.719,52.769,450.273,66.472z
		"/>
	<g>
		<path stroke="#000000" stroke-miterlimit="10" d="M425.901,50.797c0.386-2.811-0.654-5.359-2.741-6.188
			c-2.615-1.039-5.886,1.013-7.305,4.584c-1.419,3.571-0.449,7.309,2.166,8.348c1.984,0.789,4.346-0.203,5.989-2.287l-3.542-4.228
			L425.901,50.797z"/>
		<path stroke="#000000" stroke-miterlimit="10" d="M439.481,56.193c0.387-2.811-0.653-5.358-2.74-6.188
			c-2.615-1.039-5.886,1.013-7.306,4.584c-1.419,3.571-0.449,7.309,2.167,8.348c1.984,0.788,4.346-0.203,5.989-2.287l-3.543-4.228
			L439.481,56.193z"/>
	</g>
	<path stroke="#000000" stroke-miterlimit="10" d="M416.755,62.858c-1.779,6.192-0.657,11.949,2.507,12.859
		c3.164,0.909,7.171-3.374,8.95-9.566L416.755,62.858z"/>
	<path fill="#12090A" stroke="#000000" stroke-miterlimit="10" d="M392.957,82.671c-0.54,0.966-1.027,1.978-1.448,3.038
		c-1.156,2.909-1.729,5.894-1.782,8.815c3.409,4.678,9.599,9.26,17.347,12.339c7.401,2.941,14.707,3.906,20.306,3.062
		c2.097-2.227,3.833-4.903,5.046-7.957c0.375-0.943,0.682-1.895,0.938-2.849c-5.778,1.396-13.897,0.572-22.138-2.702
		C402.7,93.029,396.08,87.824,392.957,82.671z"/>
</g>
<g id="Layer_1">
	<text transform="matrix(1 0 0 1 88.9092 218.1665)"><tspan x="0" y="0" fill="#FFF200" stroke="#000000" stroke-width="6" stroke-miterlimit="10" font-family="'CooperBlack'" font-size="132.61">Buzzy</tspan><tspan x="7.802" y="125" fill="#FFF200" stroke="#000000" stroke-width="6" stroke-miterlimit="10" font-family="'CooperBlack'" font-size="132.61">Bingo</tspan></text>
</g>
</svg>
